<svg width="308" height="308" xmlns="http://www.w3.org/2000/svg" xmlns:xlink="http://www.w3.org/1999/xlink" xml:space="preserve" overflow="hidden"><defs><clipPath id="clip0"><rect x="126" y="44" width="308" height="308"/></clipPath></defs><g clip-path="url(#clip0)" transform="translate(-126 -44)"><path d="M374.55 168.772C396.31 228.735 365.341 294.984 305.379 316.745 245.416 338.505 179.166 307.536 157.406 247.574 135.646 187.611 166.615 121.361 226.577 99.6011 254.257 89.5558 284.728 90.4624 311.763 102.135L316.735 90.2642C251.635 62.2396 176.142 92.296 148.117 157.397 120.093 222.498 150.149 297.99 215.25 326.015 280.35 354.04 355.843 323.983 383.868 258.882 396.83 228.772 397.778 194.843 386.517 164.056Z" stroke="#000000" stroke-width="3.20829"/><path d="M374.036 106.402 374.036 106.402 374.036 106.402C362.785 94.8928 349.361 85.7324 334.542 79.4521L334.542 79.4521 288.085 190.845 400.377 146.346 400.377 146.346C394.345 131.409 385.39 117.829 374.036 106.402ZM336.467 112.37C332.527 108.242 332.68 101.703 336.808 97.7636 340.936 93.8245 347.475 93.9772 351.414 98.1047 355.308 102.185 355.209 108.634 351.193 112.594 347.079 116.599 340.498 116.511 336.494 112.397 336.485 112.388 336.476 112.379 336.467 112.37ZM305.667 166.526 314.233 146.057C320.207 147.653 323.757 153.79 322.161 159.764 320.566 165.739 314.429 169.289 308.454 167.693 307.476 167.432 306.539 167.039 305.667 166.526ZM350.263 148.527C346.323 144.4 346.476 137.861 350.604 133.922 354.731 129.982 361.271 130.135 365.21 134.263 369.104 138.343 369.005 144.792 364.989 148.752 360.857 152.749 354.27 152.649 350.263 148.527Z" stroke="#000000" stroke-width="3.20829"/><path d="M422.225 139.865C422.93 138.193 422.93 136.308 422.225 134.635 415.297 117.37 404.989 101.662 391.907 88.4354 378.929 75.2106 363.483 64.6593 346.445 57.3787 344.762 56.6729 342.866 56.6729 341.183 57.3787 339.523 58.0309 338.21 59.3444 337.557 61.0042 336.156 64.4859 337.796 68.4491 341.247 69.9233 372.333 83.2235 396.914 108.254 409.649 139.576 409.983 140.427 410.485 141.202 411.125 141.854L411.125 141.854C413.044 143.791 415.928 144.408 418.472 143.426 420.143 142.78 421.492 141.5 422.225 139.865Z" stroke="#000000" stroke-width="3.20829"/><path d="M362.871 174.29 265.98 212.79 307.142 114.102 306.661 113.91C294.11 108.43 280.573 105.57 266.878 105.504L265.98 105.504C209.699 105.675 163.979 150.995 163.313 207.272 162.832 263.962 208.392 310.311 265.081 310.805L266.012 310.805C322.713 310.768 368.648 264.772 368.611 208.071 368.604 196.569 366.664 185.15 362.871 174.29ZM256.579 117.792C261.895 112.432 270.549 112.397 275.908 117.713 281.267 123.029 281.302 131.682 275.986 137.042 270.671 142.401 262.017 142.436 256.658 137.12 256.631 137.094 256.605 137.068 256.579 137.042 251.263 131.783 251.217 123.211 256.476 117.895 256.51 117.86 256.545 117.826 256.579 117.792ZM204.315 226.554C199.711 231.802 191.725 232.324 186.477 227.719 185.968 227.273 185.496 226.787 185.065 226.265 179.963 220.872 180.2 212.364 185.593 207.261 190.986 202.16 199.495 202.396 204.597 207.789 209.607 213.086 209.482 221.411 204.315 226.554ZM218.625 165.596C214.558 169.723 207.915 169.772 203.788 165.706 199.661 161.64 199.611 154.997 203.678 150.87 207.744 146.742 214.387 146.693 218.514 150.76 218.551 150.796 218.588 150.833 218.625 150.87 222.599 154.924 222.599 161.413 218.625 165.467ZM240.024 287.705C235.958 291.833 229.315 291.882 225.188 287.815 221.06 283.749 221.011 277.106 225.077 272.979 229.144 268.851 235.787 268.802 239.914 272.868 239.951 272.905 239.988 272.942 240.024 272.979 243.998 277.033 243.998 283.522 240.024 287.577ZM246.922 233.163C242.856 237.291 236.213 237.34 232.085 233.274 227.958 229.207 227.909 222.565 231.975 218.437 236.042 214.31 242.685 214.26 246.812 218.327 246.849 218.363 246.885 218.4 246.922 218.437 250.938 222.499 250.938 229.037 246.922 233.099ZM255.007 191.455C251.002 187.392 251.049 180.851 255.112 176.845 259.175 172.84 265.716 172.887 269.722 176.95 270.885 178.13 271.747 179.573 272.236 181.156L267.167 193.412C263.1 195.454 258.178 194.624 255.007 191.359ZM289.882 228.351C293.948 224.223 300.591 224.174 304.718 228.24 308.845 232.307 308.895 238.95 304.828 243.077 300.762 247.205 294.119 247.254 289.992 243.187 289.955 243.151 289.918 243.114 289.882 243.077 285.788 239.052 285.734 232.47 289.759 228.377 289.8 228.336 289.841 228.295 289.882 228.255ZM309.613 291.747C304.297 297.107 295.643 297.142 290.284 291.826 284.925 286.51 284.89 277.857 290.206 272.497 295.521 267.138 304.175 267.103 309.534 272.419 309.561 272.445 309.587 272.471 309.613 272.497 314.902 277.783 314.905 286.356 309.619 291.645 309.617 291.647 309.615 291.649 309.613 291.651ZM356.037 227.581C351.971 231.708 345.328 231.757 341.201 227.691 337.074 223.625 337.024 216.982 341.091 212.855 345.157 208.727 351.8 208.678 355.927 212.744 355.964 212.781 356.001 212.818 356.037 212.855 360.113 216.898 360.139 223.48 356.095 227.555 356.076 227.574 356.057 227.594 356.037 227.613Z" stroke="#000000" stroke-width="3.20829"/></g></svg>